# xmcd
#
# Track frame offsets:
#	150
#	9786
#	19230
#	28143
#	38190
#	46711
#	56590
#	68542
#	81275
#	92486
#	102467
#	111374
#
# Disc length: 1640 seconds
#
# Revision: 1
# Processed by: cddbd v1.5.2PL0 Copyright (c) Steve Scherf et al.
# Submitted via: audiograbber 1.83.01
#
DISCID=8d06660c
DTITLE=Johnny Cash - Rare Foreign Singles
DYEAR=1988
DGENRE=Country
TTITLE0=In Virginia
TTITLE1=Wer Kennt den Weg?
TTITLE2=Kleine Rosmarie
TTITLE3=Besser So, Jenny-Jo
TTITLE4=Wo Ist zu Hause Mama?
TTITLE5=Viel zu Spät
TTITLE6=Fuego d'Amor
TTITLE7=El Matador
TTITLE8=Besser So, Jenny-Jo (Studio Session)
TTITLE9=In Virginia (Studio Session)
TTITLE10=Kleine Rosmarie (Studio Session)
TTITLE11=Wer Kennt den Weg? (Studio Session)
EXTD=
EXTT0=
EXTT1=
EXTT2=
EXTT3=
EXTT4=
EXTT5=
EXTT6=
EXTT7=
EXTT8=
EXTT9=
EXTT10=
EXTT11=
PLAYORDER=
